<?xml version="1.0" standalone="no"?>
<!DOCTYPE svg PUBLIC "-//W3C//DTD SVG 20010904//EN"
 "http://www.w3.org/TR/2001/REC-SVG-20010904/DTD/svg10.dtd">
<svg version="1.0" xmlns="http://www.w3.org/2000/svg"
 width="2000.000000pt" height="2000.000000pt" viewBox="0 0 2000.000000 2000.000000"
 preserveAspectRatio="xMidYMid meet">
<metadata>
Created by potrace 1.11, written by Peter Selinger 2001-2013
</metadata>
<g transform="translate(0.000000,2000.000000) scale(0.100000,-0.100000)"
fill="#000000" stroke="none">
<path d="M430 10115 l0 -9575 9575 0 9575 0 0 9575 0 9575 -9575 0 -9575 0 0
-9575z m18465 0 l0 -8890 -8890 0 -8891 -1 2 8891 c0 4889 2 8890 3 8890 0 1
4000 1 8889 1 l8887 0 0 -8891z"/>
<path d="M4124 16561 c-2 -2 -4 -2934 -4 -6515 l0 -6511 348 2 c191 1 356 2
367 2 20 1 20 8 20 6505 0 3577 -3 6508 -7 6512 -8 7 -716 12 -724 5z"/>
<path d="M7477 16562 c-9 -2 -17 -11 -18 -20 0 -9 -1 -2037 -1 -4507 -1 -3932
2 -4718 17 -4793 1 -9 6 -46 9 -82 4 -36 9 -76 11 -90 2 -14 7 -45 10 -70 38
-291 143 -670 267 -965 53 -128 155 -336 207 -423 17 -29 31 -55 31 -57 0 -8
105 -170 112 -173 5 -2 8 -8 8 -13 0 -13 173 -253 241 -334 10 -11 43 -51 76
-90 134 -160 365 -389 559 -555 528 -452 1199 -769 1894 -895 41 -8 57 -10
125 -20 28 -3 57 -8 65 -10 8 -2 47 -7 85 -11 39 -3 78 -8 87 -9 47 -9 303
-19 473 -19 176 1 294 6 420 19 116 11 161 16 180 20 11 2 43 7 70 10 28 3 57
8 65 10 8 2 33 6 55 10 59 8 291 62 371 86 38 11 76 22 85 24 55 12 339 118
440 163 219 99 546 277 557 304 2 5 7 8 12 8 24 0 324 223 470 349 400 346
713 725 984 1191 51 88 184 367 234 491 61 151 148 410 152 451 0 4 7 26 15
48 8 22 12 40 9 40 -2 0 0 8 5 18 5 9 11 31 14 47 3 17 12 59 21 95 8 36 18
81 21 100 3 19 8 42 10 50 2 8 6 31 9 50 3 19 8 46 11 60 3 14 8 52 11 85 9
79 11 9376 3 9395 -6 13 -56 15 -368 14 -199 0 -363 -3 -366 -6 -3 -2 -6
-2076 -8 -4609 -2 -2532 -7 -4617 -10 -4634 -3 -16 -8 -57 -12 -90 -3 -33 -8
-67 -10 -75 -2 -8 -7 -37 -11 -65 -3 -27 -8 -59 -10 -70 -3 -11 -7 -35 -10
-53 -3 -19 -19 -88 -35 -154 -113 -465 -324 -893 -631 -1282 -250 -316 -610
-645 -914 -833 -166 -104 -326 -189 -469 -250 -284 -123 -630 -215 -925 -248
-30 -3 -71 -8 -90 -10 -188 -22 -592 -22 -750 0 -19 2 -57 7 -85 10 -27 3 -77
10 -110 15 -33 5 -78 12 -100 16 -22 3 -69 13 -105 21 -36 8 -73 16 -82 18
-47 10 -214 58 -303 88 -477 162 -926 448 -1315 837 -173 172 -213 218 -331
370 -105 135 -208 290 -289 435 -28 50 -114 218 -115 225 0 3 -13 32 -29 65
-15 33 -29 68 -31 77 -2 10 -11 34 -20 55 -10 21 -21 47 -26 58 -43 101 -133
458 -154 610 -3 23 -7 50 -9 62 -3 12 -8 53 -11 90 -4 37 -10 77 -13 88 -4 11
-8 2092 -9 4624 -2 2533 -6 4607 -8 4609 -5 6 -691 9 -718 4z"/>
</g>
</svg>
